<?xml version="1.0" standalone="no"?><!DOCTYPE svg PUBLIC "-//W3C//DTD SVG 1.1//EN" "http://www.w3.org/Graphics/SVG/1.1/DTD/svg11.dtd"><svg t="1551337906708" class="icon" style="" viewBox="0 0 1024 1024" version="1.1" xmlns="http://www.w3.org/2000/svg" p-id="7892" xmlns:xlink="http://www.w3.org/1999/xlink" width="200" height="200"><defs><style type="text/css"></style></defs><path d="M263.552 362.496H805.674667V279.552H218.368v82.944h45.184z m106.410667-249.6h284.117333c17.066667 0 30.848 13.952 30.848 30.72v74.752h151.594667c16.896 0 30.677333 13.610667 30.677333 30.421333v144.426667a30.592 30.592 0 0 1-30.677333 30.506667h-45.568v456.661333c0 16.810667-13.525333 30.72-30.634667 30.72H263.552a30.421333 30.421333 0 0 1-30.208-30.72V423.765333H187.733333a30.805333 30.805333 0 0 1-30.805333-30.506666V248.832a30.72 30.72 0 0 1 30.805333-30.421333H338.944V143.658667a31.146667 31.146667 0 0 1 31.018667-30.762667z m253.269333 61.397333H400.597333v38.357334h222.634667v-38.357334zM402.56 423.765333v355.328a18.176 18.176 0 0 1-18.261333 18.090667 18.176 18.176 0 0 1-18.261334-18.090667V423.765333h-71.68v425.856h434.901334V423.765333H658.346667v355.328a18.432 18.432 0 0 1-18.645334 18.090667 18.218667 18.218667 0 0 1-18.474666-18.090667V423.765333h-91.178667v355.328a17.92 17.92 0 0 1-18.048 18.090667 18.346667 18.346667 0 0 1-18.645333-18.090667V423.765333H402.56z" p-id="7893" fill="#8a8a8a"></path></svg>