<?xml version="1.0" standalone="no"?><!DOCTYPE svg PUBLIC "-//W3C//DTD SVG 1.1//EN" "http://www.w3.org/Graphics/SVG/1.1/DTD/svg11.dtd"><svg t="1545912666824" class="icon" style="" viewBox="0 0 1024 1024" version="1.1" xmlns="http://www.w3.org/2000/svg" p-id="20695" xmlns:xlink="http://www.w3.org/1999/xlink" width="200" height="200"><defs><style type="text/css"></style></defs><path d="M512 802.133333c-157.866667 0-290.133333-128-290.133333-290.133333s128-290.133333 290.133333-290.133333c157.866667 0 290.133333 128 290.133333 290.133333s-128 290.133333-290.133333 290.133333zM512 256c-140.8 0-256 115.2-256 256s115.2 256 256 256 256-115.2 256-256-115.2-256-256-256z" fill="#26a2ff" p-id="20696"></path><path d="M349.866667 708.266667c-93.866667 0-162.133333-29.866667-187.733334-89.6-25.6-59.733333 4.266667-136.533333 81.066667-209.066667 8.533333-4.266667 17.066667-4.266667 25.6 0 4.266667 8.533333 4.266667 17.066667 0 25.6-64 64-93.866667 128-76.8 170.666667 34.133333 81.066667 209.066667 89.6 384 17.066666 174.933333-72.533333 290.133333-204.8 256-285.866666C810.666667 281.6 725.333333 256 614.4 273.066667c-8.533333 0-17.066667-4.266667-17.066667-12.8 0-8.533333 4.266667-17.066667 12.8-17.066667 128-17.066667 221.866667 12.8 251.733334 85.333333 42.666667 102.4-76.8 247.466667-273.066667 328.533334-85.333333 34.133333-170.666667 51.2-238.933333 51.2z" fill="#26a2ff" p-id="20697"></path><path d="M409.6 473.6c-34.133333 0-59.733333-25.6-59.733333-59.733333 0-34.133333 25.6-59.733333 59.733333-59.733334 34.133333 0 59.733333 25.6 59.733333 59.733334 4.266667 29.866667-25.6 59.733333-59.733333 59.733333z m0-106.666667c-25.6 0-42.666667 21.333333-42.666667 42.666667 0 25.6 21.333333 42.666667 42.666667 42.666667s42.666667-21.333333 42.666667-42.666667c4.266667-21.333333-17.066667-42.666667-42.666667-42.666667zM558.933333 554.666667c-25.6 0-46.933333-17.066667-46.933333-42.666667s21.333333-46.933333 46.933333-46.933333 46.933333 21.333333 46.933334 46.933333c-4.266667 25.6-21.333333 42.666667-46.933334 42.666667z m0-72.533334c-17.066667 0-29.866667 12.8-29.866666 29.866667 0 17.066667 12.8 29.866667 29.866666 29.866667 17.066667 0 29.866667-12.8 29.866667-29.866667-4.266667-17.066667-17.066667-29.866667-29.866667-29.866667z" fill="#26a2ff" p-id="20698"></path></svg>