<?xml version="1.0" standalone="no"?><!DOCTYPE svg PUBLIC "-//W3C//DTD SVG 1.1//EN" "http://www.w3.org/Graphics/SVG/1.1/DTD/svg11.dtd"><svg t="1545905946434" class="icon" style="" viewBox="0 0 1024 1024" version="1.1" xmlns="http://www.w3.org/2000/svg" p-id="1190" xmlns:xlink="http://www.w3.org/1999/xlink" width="200" height="200"><defs><style type="text/css"></style></defs><path d="M960.856566 463.515152L586.294949 88.824242c-20.428283-20.428283-47.450505-31.547475-76.282828-31.547474s-55.854545 11.248485-76.282828 31.547474L63.046465 459.636364c-9.050505 9.050505-9.050505 23.789899 0 32.969697 9.050505 9.050505 23.789899 9.050505 32.969697 0l38.141414-38.141415v369.519192c0 38.141414 14.610101 73.955556 41.115151 100.848485 26.634343 27.022222 62.319192 42.020202 100.460606 42.020202h469.333334c79.127273 0 143.515152-64.129293 143.515151-142.868687V456.921212l39.434344 39.434344c4.525253 4.525253 10.472727 6.852525 16.420202 6.852525s11.894949-2.327273 16.420202-6.852525c9.179798-9.050505 9.179798-23.789899 0-32.840404zM621.20404 920.177778h-218.50505v-250.828283c0-9.309091 7.49899-16.808081 16.808081-16.808081h184.888889c9.309091 0 16.808081 7.49899 16.80808 16.808081v250.828283z m220.832324-96.323233c0 53.139394-43.442424 96.323232-96.969697 96.323233h-77.317172v-250.828283c0-34.909091-28.444444-63.353535-63.353535-63.353535h-184.888889c-34.909091 0-63.353535 28.444444-63.353536 63.353535v250.828283h-80.549495c-52.363636 0-95.030303-43.183838-95.030303-96.323233v-415.030303H179.668687l287.030303-287.030303c11.636364-11.636364 27.022222-17.971717 43.313131-17.971717s31.806061 6.335354 43.313132 17.971717l288.581818 288.581819v413.478787z" fill="#707070" p-id="1191"></path></svg>