<?xml version="1.0" standalone="no"?><!DOCTYPE svg PUBLIC "-//W3C//DTD SVG 1.1//EN" "http://www.w3.org/Graphics/SVG/1.1/DTD/svg11.dtd"><svg t="1545912364394" class="icon" style="" viewBox="0 0 1024 1024" version="1.1" xmlns="http://www.w3.org/2000/svg" p-id="15957" xmlns:xlink="http://www.w3.org/1999/xlink" width="200" height="200"><defs><style type="text/css"></style></defs><path d="M356.178365 419.866713C393.064626 419.866713 422.960974 389.970365 422.960974 353.084104 422.960974 316.197843 393.064626 286.301496 356.178365 286.301496 319.292104 286.301496 289.395757 316.197843 289.395757 353.084104 289.395757 389.970365 319.292104 419.866713 356.178365 419.866713ZM734.613148 353.084104C734.613148 316.197843 704.7168 286.301496 667.830539 286.301496 630.944278 286.301496 601.04793 316.197843 601.04793 353.084104 601.04793 389.970365 630.944278 419.866713 667.830539 419.866713 704.7168 419.866713 734.613148 389.970365 734.613148 353.084104ZM249.239374 569.564383C231.875896 575.708383 222.7712 594.808209 228.9152 612.193948 271.344417 732.024209 385.119722 812.519513 512.006678 812.519513 638.893635 812.519513 752.646678 732.024209 795.098157 612.193948 801.242157 594.808209 792.137461 575.708383 774.751722 569.564383 757.343722 563.442643 738.288417 572.525078 732.122157 589.888557 699.131548 683.117078 610.644591 745.736904 512.006678 745.736904 413.346504 745.736904 324.859548 683.117078 291.868939 589.888557 285.7472 572.525078 266.714157 563.442643 249.239374 569.564383ZM512 0C229.665391 0 0 229.665391 0 512 0 613.554087 29.785043 711.813565 86.105043 796.093217 96.345043 811.430957 117.092174 815.482435 132.429913 805.286957 147.767652 795.046957 151.863652 774.299826 141.623652 758.962087 92.672 685.701565 66.782609 600.30887 66.782609 512 66.782609 266.50713 266.50713 66.782609 512 66.782609 757.49287 66.782609 957.217391 266.50713 957.217391 512 957.217391 757.49287 757.49287 957.217391 512 957.217391 423.424 957.217391 337.808696 931.194435 264.43687 881.975652 249.143652 871.757913 228.396522 875.78713 218.089739 891.102609 207.827478 906.440348 211.923478 927.165217 227.216696 937.449739 311.652174 994.05913 410.134261 1024 512 1024 794.334609 1024 1024 794.334609 1024 512 1024 229.665391 794.334609 0 512 0Z" p-id="15958" fill="#26a2ff"></path></svg>