<?xml version="1.0" standalone="no"?><!DOCTYPE svg PUBLIC "-//W3C//DTD SVG 1.1//EN" "http://www.w3.org/Graphics/SVG/1.1/DTD/svg11.dtd"><svg t="1545907243751" class="icon" style="" viewBox="0 0 1024 1024" version="1.1" xmlns="http://www.w3.org/2000/svg" p-id="3001" xmlns:xlink="http://www.w3.org/1999/xlink" width="200" height="200"><defs><style type="text/css"></style></defs><path d="M847.8 217.1H210.6l-14.3-98.4H68.4c-16.3 0-29.5 13.3-29.5 29.5 0 16.3 13.2 29.5 29.5 29.5h76.9l13.9 95.8c0.3 2.2 0.9 4.3 1.7 6.3l37 370.5c0 21.7 17.6 39.4 39.4 39.4h571.1c21.8 0 39.4-17.6 39.4-39.4l39.4-393.9c0-21.7-17.7-39.3-39.4-39.3z m-57.5 413.6h-535l-35.4-354.5h605.9l-35.5 354.5zM374.9 729.3c-54.3 0-98.3 44.1-98.3 98.5s44 98.4 98.3 98.4 98.3-44.1 98.3-98.4c0-54.4-44-98.5-98.3-98.5z m0 137.8c-21.6 0-39.2-17.7-39.2-39.4s17.6-39.4 39.2-39.4c21.7 0 39.3 17.7 39.3 39.4s-17.6 39.4-39.3 39.4zM670.3 729.3c-54.3 0-98.3 44.1-98.3 98.5s44 98.4 98.3 98.4 98.3-44.1 98.3-98.4c0-54.4-44-98.5-98.3-98.5z m0 137.8c-21.6 0-39.2-17.7-39.2-39.4s17.6-39.4 39.2-39.4c21.7 0 39.3 17.7 39.3 39.4-0.1 21.7-17.6 39.4-39.3 39.4z" fill="#666666" p-id="3002"></path></svg>