<?xml version="1.0" standalone="no"?><!DOCTYPE svg PUBLIC "-//W3C//DTD SVG 1.1//EN" "http://www.w3.org/Graphics/SVG/1.1/DTD/svg11.dtd"><svg t="1552888422764" class="icon" style="" viewBox="0 0 1024 1024" version="1.1" xmlns="http://www.w3.org/2000/svg" p-id="2581" xmlns:xlink="http://www.w3.org/1999/xlink" width="200" height="200"><defs><style type="text/css"></style></defs><path d="M512 1024S119.466667 596.053333 119.466667 384 295.253333 0 512 0c216.797867 0 392.533333 171.946667 392.533333 384S512 1024 512 1024z m0-896c-144.503467 0-261.6832 114.6368-261.6832 256s117.162667 256 261.6832 256c144.4864 0 261.6832-114.6368 261.6832-256S656.503467 128 512 128z" fill="#009AFF" p-id="2582"></path><path d="M512 512c-72.2432 0-130.833067-57.2928-130.833067-128 0-70.690133 58.589867-128 130.833067-128 72.277333 0 130.8672 57.309867 130.8672 128 0 70.7072-58.606933 128-130.8672 128z m0 0" fill="#02EAE2" p-id="2583"></path></svg>