<?xml version="1.0" standalone="no"?><!DOCTYPE svg PUBLIC "-//W3C//DTD SVG 1.1//EN" "http://www.w3.org/Graphics/SVG/1.1/DTD/svg11.dtd"><svg t="1553066648435" class="icon" style="" viewBox="0 0 4096 1024" version="1.1" xmlns="http://www.w3.org/2000/svg" p-id="5435" xmlns:xlink="http://www.w3.org/1999/xlink" width="192" height="48"><defs><style type="text/css"></style></defs><path d="M167.529412 123.529412C118.1174 126.274524 81.058947 130.392129 56.352941 135.882353L19.294118 98.823529 809.882353 86.470588 879.882351 16.470588 966.352941 98.823529C969.098053 101.568641 970.470587 104.313712 970.470587 107.058824 970.470587 109.803935 967.725517 111.176471 962.235293 111.176471L455.764706 119.411765 521.647059 144.117647C524.392171 144.117647 525.764704 148.235253 525.764704 156.470588L521.647059 205.882353 521.647059 671.176469 525.764704 864.705882C517.529371 908.62767 484.588523 948.431194 426.941175 984.117646 415.96073 986.862758 409.098053 980.000081 406.352941 963.529412L414.588235 691.764706 418.705881 234.705882C415.960772 190.784094 411.843165 152.353106 406.352941 119.411765L167.529412 123.529412ZM604 341.764707C768.706705 415.882725 857.9215 472.156672 871.647057 510.588235 879.882394 560.000247 859.294365 601.176305 809.882353 634.117647 787.921459 645.098095 774.196107 640.980489 768.705882 621.764704 733.019428 514.705348 675.372948 424.118019 595.764706 350.000002 595.764706 341.764665 598.509776 339.019595 604 341.764707L604 341.764707ZM1658.117647 0 1748.705882 57.647059C1754.196107 57.647059 1754.196107 61.764665 1748.705882 70L1724 86.470588 1592.235294 210 1736.352943 205.882353 1773.411765 156.470588 1864 205.882353C1869.490224 205.882353 1870.862758 208.627423 1868.117649 214.117647L1847.529412 251.176471 1847.529412 366.47059 1851.64706 477.647059C1848.901948 510.588401 1831.058989 544.901783 1798.117647 580.588237 1784.39209 591.568682 1773.411807 591.568682 1765.176471 580.588237 1748.705801 553.137119 1736.352982 535.29416 1728.117646 527.058824L1592.235294 527.058824 1592.235294 667.058824 1880.470588 662.941175 1950.47059 597.058825 2020.470588 667.058824C2023.2157 675.29416 2021.843164 679.411766 2016.352943 679.411766L1592.235294 687.647057 1592.235294 708.235294 1596.35294 885.294116C1585.372494 929.215907 1564.784465 966.274358 1534.588235 996.470588 1512.627342 1015.68637 1500.274522 1015.68637 1497.52941 996.470588L1501.647059 691.764706 1225.764707 695.882354C1173.607584 698.627464 1135.176596 702.74507 1110.47059 708.235294L1085.764704 675.294118 1501.647059 671.176469 1501.647059 531.176472 1349.294116 535.294118C1332.823447 562.745236 1314.980488 583.333265 1295.764706 597.058825 1279.294036 605.294158 1269.686287 602.549088 1266.941175 588.823528L1271.058824 411.764706 1271.058824 251.176471 1266.941175 172.941176C1264.196066 164.705841 1266.941136 163.333306 1275.176472 168.823529L1349.294116 214.117647 1563.411763 210 1658.117647 0ZM1740.470588 226.470588 1592.235294 230.588235 1592.235294 350.000002 1699.294118 350.000002C1704.784342 347.254889 1707.529412 349.999959 1707.529412 358.235293 1704.7843 363.725517 1700.666693 366.47059 1695.176469 366.47059L1592.235294 366.47059 1592.235294 510.588235 1740.470588 506.470587 1740.470588 226.470588ZM1349.294116 374.705881 1349.294116 514.705884 1501.647059 510.588235 1501.647059 370.588235 1349.294116 374.705881ZM1349.294116 234.705882 1349.294116 358.235293 1501.647059 354.117647 1501.647059 230.588235 1349.294116 234.705882ZM1353.411765 28.823529C1441.25534 59.019759 1483.803934 83.725394 1481.058822 102.941176 1483.803934 133.137406 1471.451118 155.09797 1444 168.823529 1427.52933 177.058865 1416.549048 172.941259 1411.058824 156.470588 1397.333266 101.568353 1376.745234 61.764829 1349.294116 37.058824 1346.549007 31.5686 1347.921541 28.823529 1353.411765 28.823529L1353.411765 28.823529ZM2329.294119 172.941176C2329.294119 164.705841 2332.039189 161.960771 2337.52941 164.705882L2440.470588 222.352941 2683.411763 214.117647 2683.411763 119.411765C2686.156875 75.489976 2687.529412 42.549129 2687.529412 20.588235L2790.47059 57.647059C2795.960811 60.392171 2795.960811 64.509776 2790.47059 70L2769.882353 90.588235C2767.137241 131.764912 2765.764704 172.94097 2765.764704 214.117647L2938.705884 210 2996.35294 144.117647 3070.470596 214.117647C3075.960802 222.352982 3074.58828 226.470588 3066.352941 226.470588L2765.764704 234.705882C2763.019595 358.235913 2778.117481 466.666201 2811.058824 560 2844.000166 499.60754 2872.823404 436.470917 2897.52941 370.588235L2975.764706 424.117646C2986.745154 432.352982 2986.745154 439.215658 2975.764706 444.705882 2975.764706 447.450994 2973.019636 451.568601 2967.529412 457.058822 2964.7843 462.549046 2962.03923 466.666653 2959.294118 469.411765 2923.607663 535.294446 2886.549212 594.313466 2848.117646 646.47059 2886.549212 720.588607 2938.705553 778.235088 3004.588237 819.411763 3021.058891 830.392212 3034.784256 829.019675 3045.764698 815.294118L3086.941184 774.117647C3089.686287 771.372535 3093.803881 769.999998 3099.294118 769.999998 3104.784354 772.745111 3106.156875 776.862717 3103.411772 782.352941 3075.960651 823.529617 3073.215578 859.215535 3095.176463 889.411765 3108.902039 922.353107 3107.529487 945.686206 3091.058808 959.411766 3071.843027 973.137324 3044.392328 971.764787 3008.705882 955.294118 2912.626971 911.37233 2835.764995 834.510354 2778.117647 724.705882 2695.764293 818.039682 2559.8833 909.999547 2370.470587 1000.588234 2367.725478 1003.333346 2364.980405 1001.960812 2362.235296 996.470588 2362.235296 993.725476 2363.607829 990.980406 2366.352941 988.235294 2531.059646 892.156383 2660.077966 780.981022 2753.411765 654.705881 2709.489977 533.920964 2687.529412 395.294901 2687.529412 238.823529L2428.117649 242.941176 2428.117649 411.764706 2428.117649 415.882354 2535.176469 411.764706 2568.117646 362.352941 2650.470587 403.529412C2655.960811 406.274524 2655.960811 410.39213 2650.470587 415.882354L2625.764707 457.058822 2625.764707 572.35294 2629.882353 650.588235C2624.392129 719.216029 2585.961141 775.489976 2514.588235 819.411763 2509.098011 822.156875 2504.980405 822.156875 2502.235293 819.411763 2496.745071 816.666654 2495.372535 812.549048 2498.117647 807.058824 2503.607871 774.117481 2492.627589 754.901989 2465.176471 749.411765 2459.686246 738.431316 2461.058783 732.941176 2469.294116 732.941176 2515.961019 738.431401 2536.549048 720.588442 2531.058824 679.411766L2539.294118 432.352943 2428.117649 436.470588C2439.098094 631.373523 2327.922736 809.80311 2094.588235 971.764706 2089.098011 974.509818 2086.352941 973.137282 2086.352941 967.647057 2083.607829 964.901948 2084.980366 962.156875 2090.470587 959.411766 2189.294613 877.058412 2255.176306 793.33376 2288.117646 708.235294 2321.058988 628.627052 2337.52941 511.961552 2337.52941 358.235293L2337.52941 296.470588 2329.294119 172.941176ZM2856.352943 70C2908.510063 83.725559 2937.333305 97.450912 2942.823529 111.176471 2940.078417 130.392253 2930.470671 148.235212 2913.999998 164.705882 2903.019553 172.941218 2894.78434 170.196147 2889.294119 156.470588 2883.803895 142.745029 2874.196146 123.529535 2860.470588 98.823529 2854.980364 87.843082 2850.862758 79.607871 2848.117646 74.117647 2848.117646 71.372535 2850.862718 70 2856.352943 70L2856.352943 70ZM3753.999992 8.235294 3848.705867 49.411765C3856.941207 54.901988 3858.313758 61.764665 3852.823522 70L3844.588243 98.823529 3844.588243 238.823529 3955.764706 234.705882 3996.941192 181.176471 4091.647066 234.705882C4097.137272 237.450994 4095.764751 241.5686 4087.529412 247.058824L4058.70589 284.117647 4054.588235 551.764706 4058.70589 774.117647C4058.70589 845.490552 4017.529826 905.882106 3935.176463 955.294118 3929.686257 958.03923 3925.568632 958.03923 3922.823529 955.294118 3917.333293 952.549006 3915.960772 948.431399 3918.705875 942.941178 3921.451008 909.999836 3910.470716 888.03927 3885.764698 877.058825 3883.019595 874.313713 3881.647044 871.56864 3881.647044 868.823528 3881.647044 866.078419 3884.392117 864.705882 3889.882353 864.705882 3939.294359 864.705882 3961.254942 848.23546 3955.764706 815.294118L3959.88236 255.294118 3844.588243 259.411765 3844.588243 395.294118C3869.294231 680.785742 3696.354786 886.666035 3325.764698 1012.941176 3314.784256 1010.196064 3313.411735 1003.333388 3321.647044 992.352943 3629.09958 871.568023 3774.588326 672.550406 3758.117647 395.294118L3758.117647 263.529412 3737.529404 263.529412C3699.097841 263.529412 3667.529547 267.647018 3642.823529 275.882353L3614.000008 247.058824 3758.117647 242.941176 3758.117647 164.705882C3758.117647 79.607418 3756.745126 27.451076 3753.999992 8.235294L3753.999992 8.235294ZM3226.941169 201.764706C3215.960727 193.529371 3215.960727 185.294159 3226.941169 177.058824L3539.882345 168.823529 3593.411765 111.176471 3663.411772 172.941176C3668.901978 178.4314 3668.901978 182.549006 3663.411772 185.294118L3482.235302 189.411765 3473.999992 630.000002 3667.529427 560C3678.509869 557.254888 3681.254942 559.999958 3675.764706 568.235294L3424.588228 732.941176C3408.117579 743.921625 3386.156996 757.646978 3358.705875 774.117647 3325.764548 796.078541 3302.431443 811.17643 3288.705867 819.411763 3288.705867 819.411763 3287.333346 820.7843 3284.588243 823.529412 3281.84311 829.019636 3277.725515 829.019636 3272.235309 823.529412L3198.117647 737.058822C3189.882308 728.823489 3189.882308 723.333346 3198.117647 720.588234 3250.274756 712.352901 3305.176184 695.882478 3362.823529 671.176469L3383.411772 667.058824 3379.294118 193.529412 3226.941169 201.764706Z" p-id="5436"></path></svg>