<?xml version="1.0" standalone="no"?><!DOCTYPE svg PUBLIC "-//W3C//DTD SVG 1.1//EN" "http://www.w3.org/Graphics/SVG/1.1/DTD/svg11.dtd"><svg t="1553066323710" class="icon" style="" viewBox="0 0 1471 1024" version="1.1" xmlns="http://www.w3.org/2000/svg" p-id="5266" xmlns:xlink="http://www.w3.org/1999/xlink" width="287.3046875" height="200"><defs><style type="text/css"></style></defs><path d="M126.063866 791.233613c0 70.991597 276.652101 129.07563 615.260504 129.075631s615.260504-56.793277 615.260504-129.075631-276.652101-129.07563-615.260504-129.07563-615.260504 56.363025-615.260504 129.07563z m0 0" fill="#8AB9F2" p-id="5267"></path><path d="M1350.131092 67.119328c-23.663866 0-42.164706 18.50084-42.164705 42.164706 0 23.663866 18.50084 42.164706 42.164705 42.164705s42.164706-18.50084 42.164706-42.164705c0-23.663866-18.50084-42.164706-42.164706-42.164706z m0 65.828571c-13.337815 0-23.663866-10.32605-23.663865-23.663865s10.756303-23.663866 23.663865-23.663866c13.337815 0 23.663866 10.32605 23.663866 23.663866s-10.756303 23.663866-23.663866 23.663865z m0 0M1206.426891 517.163025c0 15.058824 12.477311 27.536134 27.536134 27.536135 15.489076 0 27.536134-12.477311 27.536135-27.536135 0-15.058824-12.477311-27.536134-27.536135-27.536134-15.058824 0-27.536134 12.477311-27.536134 27.536134z m0 0" fill="#FFDA33" p-id="5268"></path><path d="M1223.636975 517.163025c0 4.302521 3.442017 7.744538 7.744538 7.744538s7.744538-3.442017 7.744537-7.744538-3.442017-7.744538-7.744537-7.744538-7.744538 3.442017-7.744538 7.744538z m0 0M157.902521 0c-31.408403 0-56.793277 24.954622-56.793277 56.793277 0 31.408403 24.954622 56.793277 56.793277 56.793278 31.408403 0 56.793277-24.954622 56.793277-56.793278C214.265546 24.954622 189.310924 0 157.902521 0z m0 95.085714c-21.082353 0-38.292437-17.210084-38.292437-38.292437s17.210084-38.292437 38.292437-38.292437 38.292437 17.210084 38.292437 38.292437-17.210084 38.292437-38.292437 38.292437z m0 0" fill="#FFDA33" p-id="5269"></path><path d="M247.394958 529.210084h-35.710924v-35.710924c0-2.581513-2.581513-3.872269-3.872269-3.872269-1.290756 0-3.872269 2.581513-3.872269 3.872269v38.292437h-35.710925c-2.581513 0-3.872269 2.581513-3.872268 3.872269 0 1.290756 2.581513 3.872269 3.872268 3.872268h35.710925v38.292437c0 2.581513 2.581513 3.872269 3.872269 3.872269 1.290756 0 3.872269-2.581513 3.872269-3.872269v-38.292437h35.710924c2.581513 0 3.872269-2.581513 3.872269-3.872268 0-3.872269-1.290756-6.453782-3.872269-6.453782zM1136.72605 85.620168l-24.954621-14.628571 14.628571-24.954622c0-2.581513 0-3.872269-2.581513-3.872269s-3.872269 0-3.872269 2.581512l-14.628571 23.663866-24.954622-14.628571c-2.581513 0-3.872269 0-3.872269 2.581512s0 3.872269 2.581513 3.872269l24.954622 14.628572-14.628572 24.954621c0 2.581513 0 3.872269 2.581513 3.872269s3.872269 0 3.872269-2.581512l14.628571-24.954622 24.954622 14.628571c2.581513 0 3.872269 0 3.872269-2.581512 0 0 0-2.581513-2.581513-2.581513zM460.8 212.114286h-10.32605c-2.581513 0-6.453782-2.581513-6.453782-6.453782 0-2.581513 2.581513-6.453782 6.453782-6.453781h10.32605c2.581513 0 6.453782 2.581513 6.453782 6.453781s-2.581513 6.453782-6.453782 6.453782z m-15.919328-21.082353c-2.581513 2.581513-6.453782 2.581513-7.744538 0-1.290756-2.581513-2.581513-6.453782 0-7.744538l7.744538-7.744538c2.581513-2.581513 6.453782-2.581513 7.744538 0 1.290756 2.581513 2.581513 6.453782 0 7.744538l-7.744538 7.744538z m-24.954622 63.247059c-2.581513 0-6.453782-2.581513-6.453781-6.453782v-13.337815c0-2.581513 2.581513-6.453782 6.453781-6.453782 2.581513 0 6.453782 2.581513 6.453782 6.453782v12.047059c-2.581513 3.872269-3.872269 7.744538-6.453782 7.744538z m0-70.991597c-2.581513 0-6.453782-2.581513-6.453781-6.453782v-10.32605c0-2.581513 2.581513-6.453782 6.453781-6.453781 2.581513 0 6.453782 2.581513 6.453782 6.453781V176.403361c-2.581513 3.872269-3.872269 6.884034-6.453782 6.884034z m-24.954621 56.363025c-2.581513 2.581513-6.453782 2.581513-7.744538 0-1.290756-2.581513-2.581513-6.453782 0-7.744538l7.744538-7.744537c2.581513-2.581513 6.453782-2.581513 7.744537 0 1.290756 2.581513 2.581513 6.453782 0 7.744537l-7.744537 7.744538z m0-48.618487L387.226891 183.287395c-2.581513-2.581513-2.581513-6.453782 0-7.744538 2.581513-1.290756 6.453782-2.581513 7.744538 0l7.744537 7.744538c2.581513 2.581513 2.581513 6.453782 0 7.744538-2.581513 1.290756-5.163025 2.581513-7.744537 0z m2.581512 17.210084c0 2.581513-2.581513 6.453782-6.453781 6.453781h-10.326051c-2.581513 0-6.453782-2.581513-6.453781-6.453781 0-2.581513 2.581513-6.453782 6.453781-6.453782h10.326051c1.290756-0.430252 6.453782 2.151261 6.453781 6.453782z m47.327731 16.779832l7.744538 7.744538c2.581513 2.581513 2.581513 6.453782 0 7.744537-2.581513 1.290756-6.453782 2.581513-7.744538 0l-7.744538-7.744537c-2.581513-2.581513-2.581513-6.453782 0-7.744538 2.581513-3.872269 3.872269-3.872269 7.744538 0z m0 0" fill="#F4EA2A" p-id="5270"></path><path d="M210.393277 820.060504c0 55.072269 238.359664 98.527731 530.931093 98.527731s530.931092-44.746218 530.931092-98.527731c0-53.781513-238.359664-98.527731-530.931092-98.527731s-530.931092 43.02521-530.931093 98.527731z m0 0" fill="#8AB9F2" p-id="5271"></path><path d="M329.142857 859.643697c0 31.408403 185.868908 56.793277 413.472269 56.793278 228.033613 0 413.472269-24.954622 413.472269-56.793278 0-31.408403-185.868908-56.793277-413.472269-56.793277-227.603361 0-413.472269 24.954622-413.472269 56.793277z m0 0" fill="#8AB9F2" p-id="5272"></path><path d="M46.036975 933.216807c3.872269 0 7.744538-2.581513 7.744538-7.744538 0-3.872269-2.581513-7.744538-7.744538-7.744538H7.744538c-3.872269 0-7.744538 2.581513-7.744538 7.744538 0 3.872269 2.581513 7.744538 7.744538 7.744538h38.292437z m723.253781 0c3.872269 0 7.744538-2.581513 7.744538-7.744538 0-3.872269-2.581513-7.744538-7.744538-7.744538H81.317647c-3.872269 0-7.744538 2.581513-7.744538 7.744538 0 3.872269 2.581513 7.744538 7.744538 7.744538h687.973109z m74.863866 0c3.872269 0 7.744538-2.581513 7.744538-7.744538 0-3.872269-2.581513-7.744538-7.744538-7.744538h-38.292437c-3.872269 0-7.744538 2.581513-7.744538 7.744538 0 3.872269 2.581513 7.744538 7.744538 7.744538h38.292437z m617.842017 0c3.872269 0 7.744538-2.581513 7.744537-7.744538 0-3.872269-2.581513-7.744538-7.744537-7.744538h-38.292437c-3.872269 0-7.744538 2.581513-7.744538 7.744538 0 3.872269 2.581513 7.744538 7.744538 7.744538h38.292437z m-73.57311 0c3.872269 0 7.744538-2.581513 7.744538-7.744538 0-3.872269-2.581513-7.744538-7.744538-7.744538H890.191597c-3.872269 0-7.744538 2.581513-7.744538 7.744538 0 3.872269 2.581513 7.744538 7.744538 7.744538h498.231932zM589.87563 1024c3.872269 0 7.744538-2.581513 7.744538-7.744538 0-3.872269-2.581513-7.744538-7.744538-7.744538h-38.292437c-3.872269 0-7.744538 2.581513-7.744538 7.744538 0 3.872269 2.581513 7.744538 7.744538 7.744538h38.292437z m471.556303 0c3.872269 0 7.744538-2.581513 7.744538-7.744538 0-3.872269-2.581513-7.744538-7.744538-7.744538h-17.210084c-3.872269 0-7.744538 2.581513-7.744538 7.744538 0 3.872269 2.581513 7.744538 7.744538 7.744538h17.210084z m-55.072269 0c3.872269 0 7.744538-2.581513 7.744538-7.744538 0-3.872269-2.581513-7.744538-7.744538-7.744538h-370.016807c-3.872269 0-7.744538 2.581513-7.744538 7.744538 0 3.872269 2.581513 7.744538 7.744538 7.744538h370.016807z m290.85042 0c3.872269 0 7.744538-2.581513 7.744538-7.744538 0-3.872269-2.581513-7.744538-7.744538-7.744538h-201.357983c-3.872269 0-7.744538 2.581513-7.744538 7.744538 0 3.872269 2.581513 7.744538 7.744538 7.744538h201.357983z m0 0" fill="#037EE7" p-id="5273"></path><path d="M959.892437 499.092437h24.954622v47.327731h-24.954622z" fill="#D3E5FB" p-id="5274"></path><path d="M1074.769748 439.717647v5.163025c0 31.408403-24.954622 56.793277-56.793277 56.793278H512c-31.408403 0-56.793277-24.954622-56.793277-56.793278V348.934454c0-31.408403 24.954622-56.793277 56.793277-56.793278h504.685714c31.408403 0 56.793277 24.954622 56.793278 56.793278v55.072269" fill="#8AB9F2" p-id="5275"></path><path d="M985.277311 502.964706V410.890756s1.290756-32.69916 18.50084-32.699159H980.97479l-22.373109 13.337815-3.872269 35.710924 1.290756 74.863866 1.290756 2.581512v-2.581512l27.966387 0.860504z m0 0" fill="#75ADEC" p-id="5276"></path><path d="M1015.394958 508.127731H510.709244c-34.420168 0-61.956303-27.536134-61.956303-61.956302V350.22521c0-34.420168 27.536134-61.956303 61.956303-61.956302H1015.394958c34.420168 0 61.956303 27.536134 61.956303 61.956302v59.37479h-10.756303V350.22521c0-28.826891-23.663866-51.2-51.2-51.2H510.709244c-28.826891 0-51.2 23.663866-51.2 51.2v95.946219c0 28.826891 23.663866 51.2 51.2 51.2H1015.394958c28.826891 0 51.2-23.663866 51.2-51.2v-10.326051h10.756303v10.326051c0 34.420168-27.536134 61.956303-61.956303 61.956302z m0 0" fill="#037EE7" p-id="5277"></path><path d="M419.92605 418.635294h-17.210084V348.934454c0-59.37479 48.618487-106.702521 106.702521-106.702521h504.685715c59.37479 0 106.702521 48.618487 106.702521 106.702521v47.327731h-15.919328v-47.327731c0-52.490756-42.164706-92.07395-86.910924-92.07395h-503.394958c-52.490756 0-94.655462 38.292437-94.655463 92.07395v69.70084zM1015.394958 552.87395H510.709244c-59.37479 0-106.702521-48.618487-106.702521-106.702521h17.210084c0 52.490756 42.164706 92.07395 94.655462 92.073949h504.685714c52.490756 0 86.910924-39.583193 86.910925-92.073949h15.919327c-1.290756 58.084034-48.618487 106.702521-107.993277 106.702521z m0 0" fill="#037EE7" p-id="5278"></path><path d="M958.601681 391.09916l-2.581513 448.752941h-387.226891L576.537815 388.517647s7.744538-2.581513 9.035294-9.035294h385.936135c-0.860504 6.453782-12.907563 11.616807-12.907563 11.616807z m0 0" fill="#FFFFFF" p-id="5279"></path><path d="M996.894118 375.179832c-33.129412 0-40.87395 22.373109-42.164706 35.710924h-385.936135c1.290756-13.337815 9.035294-35.710924 42.164706-35.710924h385.936135z m0 0" fill="#CEE1F8" p-id="5280"></path><path d="M762.406723 733.14958c-59.37479 0-107.993277-48.618487-107.993278-107.993277s48.618487-107.993277 107.993278-107.993278 107.993277 48.618487 107.993277 107.993278c0 10.32605-1.290756 22.373109-5.163025 32.699159l-12.047059-3.872269c2.581513-9.035294 3.872269-18.50084 3.872269-28.82689 0-52.490756-42.164706-94.655462-94.655462-94.655463s-94.655462 42.164706-94.655462 94.655463 42.164706 94.655462 94.655462 94.655462c22.373109 0 44.746218-7.744538 61.956302-23.663866l9.035294 10.326051c-19.361345 17.640336-44.746218 26.67563-70.991596 26.67563z m0 0" fill="#FFDA33" p-id="5281"></path><path d="M683.240336 625.156303c0 43.455462 35.710924 79.166387 79.166387 79.166386 43.455462 0 79.166387-35.710924 79.166386-79.166386 0-43.455462-35.710924-79.166387-79.166386-79.166387-43.455462 0.430252-79.166387 35.710924-79.166387 79.166387z m0 0" fill="#FFDA33" p-id="5282"></path><path d="M746.487395 668.611765c-1.290756 0-3.872269 0-5.163025-1.290757l-40.87395-40.873949c-2.581513-2.581513-2.581513-6.453782 0-9.035294 2.581513-2.581513 6.453782-2.581513 9.035294 0l35.710925 35.710924 68.410084-68.410084c2.581513-2.581513 6.453782-2.581513 9.035294 0 2.581513 2.581513 2.581513 6.453782 0 9.035294l-73.573109 73.573109c1.721008 0-0.860504 1.290756-2.581513 1.290757z m0 0" fill="#FFFFFF" p-id="5283"></path><path d="M579.54958 801.559664h-9.035294c-2.581513 0-3.872269-2.581513-3.872269-3.872269 0-2.581513 2.581513-3.872269 3.872269-3.872269h9.035294c2.581513 0 3.872269 2.581513 3.872269 3.872269 0 1.290756-2.581513 3.872269-3.872269 3.872269z m338.178151 0h-17.210084c-2.581513 0-3.872269-2.581513-3.872269-3.872269 0-2.581513 2.581513-3.872269 3.872269-3.872269h17.210084c2.581513 0 3.872269 2.581513 3.872269 3.872269 0.430252 1.290756-2.151261 3.872269-3.872269 3.872269z m-43.455462 0h-17.210084c-2.581513 0-3.872269-2.581513-3.872269-3.872269 0-2.581513 2.581513-3.872269 3.872269-3.872269h17.210084c2.581513 0 3.872269 2.581513 3.872269 3.872269 1.721008 1.290756-0.860504 3.872269-3.872269 3.872269z m-42.164706 0h-17.210084c-2.581513 0-3.872269-2.581513-3.872269-3.872269 0-2.581513 2.581513-3.872269 3.872269-3.872269h17.210084c2.581513 0 3.872269 2.581513 3.872269 3.872269 1.721008 1.290756-0.860504 3.872269-3.872269 3.872269z m-42.164706 0h-17.210084c-2.581513 0-3.872269-2.581513-3.872269-3.872269 0-2.581513 2.581513-3.872269 3.872269-3.872269h17.210084c2.581513 0 3.872269 2.581513 3.872269 3.872269 1.721008 1.290756-0.860504 3.872269-3.872269 3.872269z m-41.734454 0h-17.210084c-2.581513 0-3.872269-2.581513-3.872269-3.872269 0-2.581513 2.581513-3.872269 3.872269-3.872269h17.210084c2.581513 0 3.872269 2.581513 3.872269 3.872269 0 1.290756-1.290756 3.872269-3.872269 3.872269z m-42.164706 0h-17.210084c-2.581513 0-3.872269-2.581513-3.872268-3.872269 0-2.581513 2.581513-3.872269 3.872268-3.872269h17.210084c2.581513 0 3.872269 2.581513 3.872269 3.872269 0 1.290756-1.290756 3.872269-3.872269 3.872269z m-42.164705 0h-17.210084c-2.581513 0-3.872269-2.581513-3.872269-3.872269 0-2.581513 2.581513-3.872269 3.872269-3.872269h17.210084c2.581513 0 3.872269 2.581513 3.872269 3.872269 0 1.290756-1.290756 3.872269-3.872269 3.872269z m-42.164706 0h-17.210084c-2.581513 0-3.872269-2.581513-3.872269-3.872269 0-2.581513 2.581513-3.872269 3.872269-3.872269h17.210084c2.581513 0 3.872269 2.581513 3.872269 3.872269 0 1.290756-1.290756 3.872269-3.872269 3.872269z m329.142857 0h-9.035294c-2.581513 0-3.872269-2.581513-3.872269-3.872269 0-2.581513 2.581513-3.872269 3.872269-3.872269h9.035294c2.581513 0 3.872269 2.581513 3.872269 3.872269 1.290756 1.290756-1.290756 3.872269-3.872269 3.872269z m-380.773109-352.806723h383.354621v9.035294h-383.354621v-9.035294z m0 0" fill="#CEE1F8" p-id="5284"></path><path d="M943.112605 722.823529v109.284034h-364.853781v-413.042017s-1.290756-17.210084 7.744537-27.536134c6.453782-6.453782 15.919328-10.32605 27.536135-10.326051h342.480672s3.872269 0 3.872269 1.290757c-15.919328 5.163025-17.210084 34.420168-17.210084 37.00168v257.721009h18.50084V418.635294s-1.290756-17.210084 7.744538-27.536134c6.453782-6.453782 15.919328-10.32605 27.536135-10.326051 3.872269 0 6.453782-2.581513 6.453781-6.453781s-2.581513-6.453782-6.453781-6.453782H610.957983c-15.919328 0-28.826891 5.163025-37.00168 14.628572-13.337815 14.628571-12.047059 34.420168-12.047059 37.00168v419.926051c0 3.872269 2.581513 6.453782 6.453781 6.453781h385.936135c3.872269 0 6.453782-2.581513 6.453781-6.453781V722.823529h-17.640336z m0 0" fill="#3B87EF" p-id="5285"></path></svg>