<?xml version="1.0" standalone="no"?><!DOCTYPE svg PUBLIC "-//W3C//DTD SVG 1.1//EN" "http://www.w3.org/Graphics/SVG/1.1/DTD/svg11.dtd"><svg t="1550563696839" class="icon" style="" viewBox="0 0 1024 1024" version="1.1" xmlns="http://www.w3.org/2000/svg" p-id="15181" xmlns:xlink="http://www.w3.org/1999/xlink" width="200" height="200"><defs><style type="text/css"></style></defs><path d="M512 512m-512 0a512 512 0 1 0 1024 0 512 512 0 1 0-1024 0Z" fill="#6FEFB8" p-id="15182"></path><path d="M183.16 735.11c0 67.38 152.58 122 340.8 122s340.8-54.62 340.8-122-152.58-122-340.8-122-340.8 54.62-340.8 122z m0 0" fill="#6FF0F0" p-id="15183"></path><path d="M514.36 867.51c-94.48 0-183.44-13.2-250.48-37.12-69.6-24.88-107.92-59-107.92-96.08s38.32-71.2 107.92-96.08c67-23.92 156-37.12 250.48-37.12s183.44 13.2 250.48 37.12c69.6 24.88 107.92 59 107.92 96.08 0 24.16-16.48 47.52-47.68 67.52a8 8 0 0 1-8.64-13.44c18.4-11.84 40.32-30.8 40.32-54.08 0-29.36-35.44-58.88-97.36-81-65.28-23.36-152.32-36.24-245-36.24S334.6 630 269.32 653.35C207.48 675.43 172 705 172 734.31s35.44 58.88 97.36 81c65.36 23.36 152.4 36.24 245 36.24 74.8 0 145.92-8.32 205.76-24.16a8 8 0 0 1 4.08 15.44C663 859 590.44 867.51 514.36 867.51z m0 0" fill="#222222" p-id="15184"></path><path d="M763.16 814.71a12.8 12.8 0 1 0 12.8-12.8 12.8 12.8 0 0 0-12.8 12.8z m0 0" fill="#222222" p-id="15185"></path><path d="M514.36 707.51c71 0 128.64 12.16 128.64 27.2s-57.6 27.2-128.64 27.2-128.64-12.16-128.64-27.2 57.6-27.2 128.64-27.2z m0 0" fill="#FFFFFF" p-id="15186"></path><path d="M514.36 769.91c-34.88 0-67.76-2.88-92.56-8.16-30-6.32-44-15-44-27s14-20.72 44-27c24.8-5.28 57.68-8.16 92.56-8.16s67.76 2.88 92.56 8.16c30 6.32 44 15 44 27s-14 20.72-44 27c-24.8 5.28-57.68 8.16-92.56 8.16z m-120.24-35.2c2.32 2.4 11.44 7.76 35.52 12.32 23.2 4.4 53.28 6.88 84.72 6.88s61.52-2.48 84.72-6.88c24.08-4.56 33.2-9.92 35.52-12.32-2.32-2.4-11.44-7.76-35.52-12.32-23.2-4.4-53.28-6.88-84.72-6.88s-61.52 2.48-84.72 6.88c-24.08 4.56-33.2 9.92-35.52 12.32z m0 0" fill="#222222" p-id="15187"></path><path d="M514.28 166.31c132.24 0 239.52 107.28 239.52 239.69 0 200.08-239.52 318.4-239.52 318.4S274.76 606.07 274.76 406c0-132.4 107.2-239.68 239.52-239.68z m0 0" fill="#FFFFFF" p-id="15188"></path><path d="M528.44 166.31C660.68 166.31 768 273.59 768 406c0 200.08-239.52 318.4-239.52 318.4S288.92 606.15 288.92 406c0-132.4 107.28-239.68 239.52-239.68z m0 0" fill="#FFDF00" p-id="15189"></path><path d="M514.28 741.19l-3.52-1.76c-2.56-1.28-63.28-31.52-125-87.76-36.4-33.12-65.36-68.4-86.24-104.8C273.24 501 260 453.27 260 405a253.66 253.66 0 0 1 62-166.48A8 8 0 1 1 334 249a237.53 237.53 0 0 0-58 155.87c0 103.36 65.6 184.8 120.56 234.88 51.76 47.12 103.92 76.08 117.84 83.44a610.6 610.6 0 0 0 118.08-83.68c54.88-50.08 120.32-131.36 120.32-234.64 0-131.44-107-238.4-238.4-238.4h-0.4A238.61 238.61 0 0 0 404.92 193a8 8 0 0 1-7.36-14.24A254.13 254.13 0 0 1 514 150.47h0.4a254.29 254.29 0 0 1 254.28 254.32c0 48.32-13.28 96.08-39.52 141.92-20.88 36.4-49.84 71.68-86.24 104.8-61.84 56.4-122.56 86.72-125.12 87.92z m0 0" fill="#222222" p-id="15190"></path><path d="M428.12 401.91a86.24 86.24 0 1 0 86.24-86.24 86.26 86.26 0 0 0-86.24 86.24z m0 0" fill="#FFFFFF" p-id="15191"></path><path d="M444 401.91a86.4 86.4 0 1 0 86.4-86.4 86.4 86.4 0 0 0-86.4 86.4z m0 0" fill="#EB6877" p-id="15192"></path><path d="M514.36 503.59A101.68 101.68 0 1 1 616 401.91a101.78 101.78 0 0 1-101.64 101.68z m0-187.36A85.68 85.68 0 1 0 600 401.91a85.78 85.78 0 0 0-85.68-85.68z m0 0M346.36 211.51a12.8 12.8 0 1 0 12.8-12.8 12.8 12.8 0 0 0-12.8 12.8z m0 0" fill="#222222" p-id="15193"></path><path d="M242.36 300.63a3.08 3.08 0 0 1-2.8-1.68L226.2 275a3.17 3.17 0 1 1 5.52-3.12l13.36 24a3.14 3.14 0 0 1-1.2 4.32 2.29 2.29 0 0 1-1.52 0.48z m0 0" fill="#00B7EE" p-id="15194"></path><path d="M223.64 295.35a3.2 3.2 0 0 1-1.52-6l24-13.36a3.19 3.19 0 1 1 3 5.6l-24 13.36a3.06 3.06 0 0 1-1.52 0.4z m0 0" fill="#00B7EE" p-id="15195"></path><path d="M708.84 171.35a3.24 3.24 0 0 1-3.12-2.4l-5.6-20.8a3.19 3.19 0 1 1 6.16-1.68l5.6 20.8a3.21 3.21 0 0 1-2.24 3.92 2.37 2.37 0 0 1-0.8 0.16z m0 0" fill="#ACD598" p-id="15196"></path><path d="M695.72 163.75a3.22 3.22 0 0 1-0.88-6.32l20.8-5.6a3.19 3.19 0 0 1 1.68 6.16l-20.8 5.6a2.84 2.84 0 0 1-0.8 0.16z m0 0" fill="#ACD598" p-id="15197"></path><path d="M846.76 480.39a2.73 2.73 0 0 1-1.84-0.64l-19.76-14.16a3.21 3.21 0 0 1 3.76-5.2l19.76 14.24a3.2 3.2 0 0 1 0.72 4.48 3.38 3.38 0 0 1-2.64 1.28z m0 0" fill="#FFF100" p-id="15198"></path><path d="M829.8 483.19a2.73 2.73 0 0 1-1.84-0.64 3.2 3.2 0 0 1-0.72-4.48l14.16-19.76a3.21 3.21 0 1 1 5.2 3.76l-14.24 19.76a3.08 3.08 0 0 1-2.56 1.36z m0 0" fill="#FFF100" p-id="15199"></path><path d="M210 507.43A10.48 10.48 0 1 1 220.44 497 10.52 10.52 0 0 1 210 507.43z m0-16.32a5.84 5.84 0 1 0 5.8 5.89 5.87 5.87 0 0 0-5.84-5.84z m0 0" fill="#EB6877" p-id="15200"></path><path d="M243 600.71a11.28 11.28 0 1 1 11.28-11.28A11.32 11.32 0 0 1 243 600.71z m0-18.8a7.52 7.52 0 1 0 7.52 7.52 7.51 7.51 0 0 0-7.52-7.52z m0 0" fill="#7EDDDC" p-id="15201"></path><path d="M137.56 644.31a6.4 6.4 0 1 0 6.4-6.4 6.4 6.4 0 0 0-6.4 6.4z m0 0" fill="#F6B37F" p-id="15202"></path><path d="M885.56 394.31a13.2 13.2 0 1 1 13.2-13.2 13.21 13.21 0 0 1-13.2 13.2z m0-21.12a7.92 7.92 0 1 0 7.92 7.92 8 8 0 0 0-7.92-7.92z m0 0" fill="#57EBBF" p-id="15203"></path><path d="M784 349.51a3.6 3.6 0 1 0 3.6-3.6 3.6 3.6 0 0 0-3.6 3.6z m0 0" fill="#D3D462" p-id="15204"></path><path d="M213.56 172.31a3.2 3.2 0 1 0 3.2-3.2 3.2 3.2 0 0 0-3.2 3.2z m0 0" fill="#FF455C" p-id="15205"></path><path d="M215.4 381.35a4.8 4.8 0 1 0 4.8-4.8 4.8 4.8 0 0 0-4.8 4.8z m0 0" fill="#71E7DB" p-id="15206"></path><path d="M156 188.31a10.88 10.88 0 0 1-8-3.31 11.15 11.15 0 0 1 0-15.84l0.08-0.08a11.23 11.23 0 0 1 15.84 0.08A11.2 11.2 0 0 1 164 185a11.33 11.33 0 0 1-8 3.28z m-5.12-16.16a7.13 7.13 0 1 0 12.24 5 7.36 7.36 0 0 0-2.08-5 7.27 7.27 0 0 0-10.16 0.08z m0 0" fill="#FF8A8A" p-id="15207"></path><path d="M144 427.51a14.4 14.4 0 1 1 14.4-14.4 14.44 14.44 0 0 1-14.4 14.4z m0-23.76a9.36 9.36 0 1 0 9.36 9.36 9.32 9.32 0 0 0-9.36-9.36z m0 0" fill="#B3D465" p-id="15208"></path><path d="M152 286.71a6.4 6.4 0 1 0 6.4-6.4 6.41 6.41 0 0 0-6.4 6.4z m0 0" fill="#CC9EE1" p-id="15209"></path><path d="M777.56 205.51a2.8 2.8 0 1 0 2.8-2.8 2.8 2.8 0 0 0-2.8 2.8z m0 0M156 539.91a2.8 2.8 0 1 0 2.8-2.8 2.8 2.8 0 0 0-2.8 2.8z m0 0" fill="#D3A884" p-id="15210"></path><path d="M830.36 554.31a2.8 2.8 0 1 0 2.8-2.8 2.8 2.8 0 0 0-2.8 2.8z m0 0" fill="#22B4FF" p-id="15211"></path><path d="M878.36 650.31a6 6 0 1 0 6-6 6 6 0 0 0-6 6z m0 0" fill="#F2ED62" p-id="15212"></path><path d="M307.16 132.71a6 6 0 1 0 6-6 6 6 0 0 0-6 6z m0 0" fill="#FFD200" p-id="15213"></path><path d="M823.85 182a16.12 16.12 0 0 1-16.08-16.08 16.17 16.17 0 0 1 4.64-11.36l0.08-0.08a16 16 0 0 1 22.72 22.64 15.47 15.47 0 0 1-11.36 4.88z m-7.92-24a11.2 11.2 0 0 0-3.36 8 10.88 10.88 0 0 0 3.36 7.92 11.32 11.32 0 1 0 0-15.92z m0 0" fill="#FF8700" p-id="15214"></path><path d="M290.6 198.63a6.4 6.4 0 1 0 6.4-6.4 6.4 6.4 0 0 0-6.4 6.4z m0 0" fill="#EBB4BE" p-id="15215"></path><path d="M767.88 607a11.91 11.91 0 0 1-8.72-3.68 12.45 12.45 0 1 1 21.28-8.88 11.91 11.91 0 0 1-3.68 8.72 12.06 12.06 0 0 1-8.88 3.84z m-5.12-17.52a7.19 7.19 0 0 0 0 10.16 7.06 7.06 0 0 0 5.12 2.08 7.2 7.2 0 0 0 5.12-2.08 7.06 7.06 0 0 0 2.08-5.12 7.2 7.2 0 0 0-2.08-5.12 7.37 7.37 0 0 0-10.24 0.08z m0 0" fill="#FF8A8A" p-id="15216"></path><path d="M840.12 267a7.2 7.2 0 1 0 7.2-7.2 7.2 7.2 0 0 0-7.2 7.2z m0 0" fill="#A657FF" p-id="15217"></path></svg>