<?xml version="1.0" standalone="no"?><!DOCTYPE svg PUBLIC "-//W3C//DTD SVG 1.1//EN" "http://www.w3.org/Graphics/SVG/1.1/DTD/svg11.dtd"><svg t="1550565029119" class="icon" style="" viewBox="0 0 1024 1024" version="1.1" xmlns="http://www.w3.org/2000/svg" p-id="19503" xmlns:xlink="http://www.w3.org/1999/xlink" width="200" height="200"><defs><style type="text/css"></style></defs><path d="M712.66666667 80H136.66666667c-30 0-66 24-66 60v636c0 30 30 60 66 60h498c-24-18-36-42-48-66s-18-48-18-78 6-54 18-84c12-30 30-54 42-72 24-18 42-36 72-48 30-12 54-18 84-18V140c-6-36-30-60-72-60z m-480 150h168c12 0 30 18 30 30s-18 36-36 36H232.66666667c-18 0-36-18-36-30s18-36 36-36z m228 414H232.66666667c-18 0-36-18-36-30 0-18 18-30 36-30h234c18 0 36 18 36 30-6 12-24 30-42 30z m162-180H232.66666667c-18 0-36-12-36-30s18-30 36-30h390c18 0 36 18 36 30-6 24-18 30-36 30z" p-id="19504" fill="#12a9f8"></path><path d="M802.66666667 554c-90 0-168 72-168 168s72 168 168 168S970.66666667 812 970.66666667 716c6-90-66-162-168-162z m108 150L796.66666667 812c-6 6-12 6-18 6-6 0-12 0-18-6l-60-60c-12-12-12-30 0-36 12-12 30-12 36 0l48 48 96-90c12-12 30-12 36 0 6 0 6 18-6 30z" p-id="19505" fill="#12a9f8"></path></svg>