<?xml version="1.0" standalone="no"?><!DOCTYPE svg PUBLIC "-//W3C//DTD SVG 1.1//EN" "http://www.w3.org/Graphics/SVG/1.1/DTD/svg11.dtd"><svg t="1550563579832" class="icon" style="" viewBox="0 0 1027 1024" version="1.1" xmlns="http://www.w3.org/2000/svg" p-id="13789" xmlns:xlink="http://www.w3.org/1999/xlink" width="200.5859375" height="200"><defs><style type="text/css"></style></defs><path d="M515.42528 511.99488m-512 0a512 512 0 1 0 1024 0 512 512 0 1 0-1024 0Z" fill="#FF4C55" p-id="13790"></path><path d="M827.43808 427.92448c6.144 16.47616-14.24384 31.83104-31.8208 31.83104H237.81376c-17.57184 0-37.85216-15.31392-31.81568-31.83104 17.57184-48.08192 68.52608-180.1216 68.52608-180.1216 5.36064-17.68448 21.09952-31.83104 38.6816-31.83104h407.03488c17.57184 0 31.56992 11.79136 38.66624 31.83104 0 0 49.95072 130.3296 68.5312 180.1216z" fill="#FFFFFF" p-id="13791"></path><path d="M705.17248 437.2224h-130.56v0.85504H334.98624v-0.57344H204.416v22.69184c0 36.03968 29.2352 65.26464 65.28512 65.26464 29.11232 0 53.76512-19.06688 62.17728-45.3888 8.8064 25.64096 33.08544 44.1088 61.71136 44.1088 28.13952 0 52.0448-17.8432 61.22496-42.79296 8.81152 25.63072 33.0752 44.07296 61.69088 44.07296 28.6208 0 52.89472-18.46272 61.696-44.09344 8.8064 25.6256 33.07008 44.09344 61.71136 44.09344 28.61056 0 52.864-18.45248 61.68064-44.09344 8.81152 25.64096 33.08032 44.09344 61.70624 44.09344 36.03456 0 65.26976-29.22496 65.26976-65.26464v-22.96832h-123.39712z" fill="#F4F4F4" p-id="13792"></path><path d="M705.17248 537.02144c-15.80032 17.11104-44.37504 24.46336-60.76416 24.79616-16.66048 0.33792-43.26912-4.6848-62.62784-22.66112-20.02944 15.41632-42.30656 22.26176-65.02912 22.66112-16.34304 0.29184-45.79328-7.2448-61.34784-22.66112-16.98816 16.27648-45.32224 22.32832-61.76768 22.66112-22.4512 0.4608-49.00352-7.68512-65.32096-22.66112-11.52512 16.70144-54.00064 22.66112-54.00064 22.66112v214.38464a31.82592 31.82592 0 0 0 31.83104 31.82592H381.0816v-79.62624c0-34.8416 28.22656-63.06816 63.07328-63.06816 34.81088 0 63.04256 28.23168 63.04256 63.06816v79.62624h233.38496a31.83104 31.83104 0 0 0 31.83104-31.82592V561.8176c-0.01536-0.00512-47.92832-1.2544-67.24096-24.79616z" fill="#FFFFFF" p-id="13793"></path></svg>