<?xml version="1.0" standalone="no"?><!DOCTYPE svg PUBLIC "-//W3C//DTD SVG 1.1//EN" "http://www.w3.org/Graphics/SVG/1.1/DTD/svg11.dtd"><svg t="1550561684239" class="icon" style="" viewBox="0 0 1024 1024" version="1.1" xmlns="http://www.w3.org/2000/svg" p-id="8257" xmlns:xlink="http://www.w3.org/1999/xlink" width="200" height="200"><defs><style type="text/css"></style></defs><path d="M744.727273 875.054545c-41.890909 0-79.127273-37.236364-79.127273-79.127272 0-46.545455 32.581818-79.127273 79.127273-79.127273 41.890909 0 79.127273 37.236364 79.127272 79.127273 0 41.890909-37.236364 79.127273-79.127272 79.127272z m-386.327273-283.927272H162.909091v-41.890909h153.6V390.981818h37.236364v200.145455zM279.272727 875.054545c-41.890909 0-79.127273-37.236364-79.127272-79.127272 0-46.545455 32.581818-79.127273 79.127272-79.127273s79.127273 37.236364 79.127273 79.127273c0 41.890909-37.236364 79.127273-79.127273 79.127272z m37.236364-623.70909v23.272727L46.545455 488.727273v228.072727c0 51.2 41.890909 93.090909 93.090909 93.090909h23.272727c9.309091 55.854545 55.854545 102.4 116.363636 102.4 55.854545 0 107.054545-41.890909 116.363637-102.4h237.381818c9.309091 55.854545 55.854545 102.4 116.363636 102.4 55.854545 0 107.054545-41.890909 116.363637-102.4h18.618181c51.2 0 93.090909-41.890909 93.090909-93.090909v-512c0-51.2-41.890909-93.090909-93.090909-93.090909H456.145455c-74.472727 0-139.636364 60.509091-139.636364 139.636364z" p-id="8258" fill="#12a9f8"></path></svg>