<?xml version="1.0" standalone="no"?><!DOCTYPE svg PUBLIC "-//W3C//DTD SVG 1.1//EN" "http://www.w3.org/Graphics/SVG/1.1/DTD/svg11.dtd"><svg t="1546047593618" class="icon" style="" viewBox="0 0 1024 1024" version="1.1" xmlns="http://www.w3.org/2000/svg" p-id="7251" xmlns:xlink="http://www.w3.org/1999/xlink" width="200" height="200"><defs><style type="text/css"></style></defs><path d="M45.056 668.672l167.424-65.536 362.496 278.016-148.992 85.504z" fill="#87640E" p-id="7252"></path><path d="M210.944 628.224l160.768-64.512 33.28 59.904-158.72 68.096z" fill="#0D577C" p-id="7253"></path><path d="M35.84 103.424l171.52-32.768 5.12 532.48-167.424 65.536z" fill="#5B4106" p-id="7254"></path><path d="M290.816 659.456l156.672-67.072 13.824 37.376-155.648 69.632z" fill="#0D577C" p-id="7255"></path><path d="M207.872 227.328l163.328-40.96 0.512 377.344-160.768 64.512z" fill="#084563" p-id="7256"></path><path d="M317.952 582.144l156.16-62.464 34.816 3.584-154.624 62.976z" fill="#1470A8" p-id="7257"></path><path d="M316.928 438.784l157.184-54.272v135.168l-156.16 62.464zM281.088 335.872L440.32 288.256V327.68l-158.72 50.176z" fill="#084563" p-id="7258"></path><path d="M305.664 699.392L461.312 629.76l149.504-60.928-148.992 66.56z" fill="#1470A8" p-id="7259"></path><path d="M443.904 520.192l151.04-59.904-0.512 71.68-150.528 64z" fill="#084563" p-id="7260"></path><path d="M281.6 377.856L440.32 327.68l155.136 13.824-151.552 51.712z" fill="#1470A8" p-id="7261"></path><path d="M443.904 393.216l151.552-51.712-0.512 54.272-151.04 55.296z" fill="#084563" p-id="7262"></path><path d="M461.824 635.392l149.504-66.56c0.512 0.512 1.536 1.536 4.096 3.072 2.048 1.536 5.12 4.096 8.704 6.656s8.192 6.144 12.8 9.728c5.12 3.584 10.752 7.68 16.896 11.776L506.88 669.184c-6.656-4.608-12.288-9.216-17.408-12.8-5.12-4.096-9.728-7.168-13.824-10.24-4.096-3.072-7.168-5.12-9.216-7.168-3.072-2.048-4.608-3.584-4.608-3.584" fill="#0D577C" p-id="7263"></path><path d="M506.368 668.672l146.944-69.12c5.12 3.584 10.24 7.168 15.872 11.264 5.632 4.096 11.776 8.192 17.92 12.288 6.144 4.096 12.8 8.192 19.456 12.8 6.656 4.096 13.312 8.704 20.48 12.8l-143.36 72.704-21.504-13.824c-7.168-4.608-13.824-9.216-20.48-13.824-6.656-4.608-12.8-8.704-18.944-13.312-5.632-3.584-11.264-7.68-16.384-11.776" fill="#0D577C" p-id="7264"></path><path d="M583.68 721.408l142.848-72.704c2.048 1.536 4.096 2.56 6.656 4.096 2.048 1.536 4.096 2.56 6.656 4.096 2.048 1.536 4.096 2.56 6.656 4.096 2.048 1.536 4.608 2.56 6.656 3.584l-141.824 73.728c-2.56-1.536-4.608-2.56-7.168-4.096-2.048-1.536-4.608-2.56-6.656-4.096-2.048-1.536-4.608-2.56-6.656-4.096-2.56-1.536-4.608-3.072-7.168-4.608" fill="#0D577C" p-id="7265"></path><path d="M443.904 288.768l152.576-46.08-0.512 58.368-152.064 49.152z" fill="#084563" p-id="7266"></path><path d="M245.248 272.384l161.792-44.032 189.44 14.336-152.576 46.08zM574.464 611.328l143.872-66.048 36.864 4.096-142.336 66.56zM354.304 484.864l155.136-57.344 210.432 20.48-144.896 59.904z" fill="#1470A8" p-id="7267"></path><path d="M574.976 507.904l144.896-59.904-1.536 97.28-143.872 66.048z" fill="#084563" p-id="7268"></path><path d="M481.792 396.8l150.016-52.224 163.328 13.824-141.312 54.784z" fill="#1470A8" p-id="7269"></path><path d="M425.984 966.656l148.992-85.504 395.776-183.296-130.56 77.824z" fill="#042D3D" p-id="7270"></path><path d="M482.304 291.84l150.528-46.08 186.368 13.824-140.8 48.128z" fill="#1470A8" p-id="7271"></path><path d="M580.608 52.736l-365.056 26.624L44.032 112.64l382.464-26.624 415.744 79.872 133.12-39.936z" fill="#0B4D68" p-id="7272"></path><path d="M842.24 165.888l133.12-39.936-13.824 565.76-130.56 77.312z" fill="#084563" p-id="7273"></path><path d="M426.496 86.016l415.744 79.872-11.264 602.624-404.992 186.88-372.736-291.328L44.032 112.64l382.464-26.624z m227.84 283.136l-172.032-15.36V291.84l196.096 15.872-36.352-44.032-434.176-35.84 3.072 400.896 35.328 63.488-1.024-419.84 198.656 16.384v61.952l-162.816-14.336v41.984l162.816 15.36v57.856l-126.976-12.8 0.512 143.872 36.864 4.096-0.512-101.888 220.672 23.04-0.512 103.424 38.912 4.608 1.536-147.456-132.608-13.312V396.8l172.032 16.384 0.512-44.032m-43.008 369.152l23.552-35.84-153.6-101.888 0.512-76.288-37.376-4.096v75.776l-153.088 63.488 14.848 39.936 156.16-64c1.024 0.512 6.144 4.608 14.336 10.752 8.192 6.144 19.968 14.848 33.28 24.576 13.824 9.728 29.696 20.992 47.104 32.768 16.384 11.776 35.328 23.552 54.272 34.816" fill="#2196F3" p-id="7274"></path><path d="M427.52 38.912s0.512 0 0 0H432.128c0.512 0 1.024 0 1.536 0.512 0.512 0 1.024 0 1.536 0.512 0.512 0 1.024 0 1.536 0.512 0.512 0 1.024 0 2.048 0.512 0.512 0 1.024 0 1.536 0.512 1.024 0 1.536 0.512 2.56 0.512h0.512c1.024 0 2.048 0.512 3.072 0.512 0.512 0 1.536 0 2.048 0.512 1.024 0 2.048 0.512 3.072 0.512 0.512 0 1.024 0 1.536 0.512 1.024 0 2.048 0.512 3.072 0.512 1.024 0 2.048 0.512 3.072 0.512 0.512 0 1.024 0 1.536 0.512 1.536 0 3.072 0.512 4.608 0.512 0.512 0 1.024 0 1.536 0.512 6.144 1.024 12.288 2.56 19.456 3.584h0.512c1.024 0 2.048 0.512 3.072 0.512 4.608 1.024 8.704 1.536 13.824 2.56 3.072 0.512 6.656 1.536 9.728 2.048 2.56 0.512 5.632 1.024 8.704 1.536 1.536 0.512 3.072 0.512 4.608 1.024 4.608 1.024 9.216 2.048 13.824 2.56 2.048 0.512 3.584 0.512 5.632 1.024 10.24 2.048 21.504 4.096 32.768 6.656 0.512 0 1.024 0 1.536 0.512 5.632 1.024 11.776 2.56 17.92 3.584 1.024 0 2.048 0.512 3.072 0.512 5.12 1.024 9.728 2.048 14.848 3.072 1.536 0.512 3.584 0.512 5.12 1.024 5.12 1.024 9.728 2.048 14.848 3.072 1.536 0.512 3.072 0.512 4.608 1.024 4.096 1.024 8.192 1.536 12.288 2.56 3.072 0.512 6.144 1.024 9.728 2.048 4.096 1.024 8.192 1.536 12.288 2.56 2.048 0.512 4.096 1.024 6.144 1.024 3.072 0.512 6.144 1.024 9.216 2.048 33.792 6.656 66.56 13.312 95.744 18.944 0.512 0 1.024 0 1.536 0.512 5.12 1.024 9.728 2.048 14.336 3.072 1.024 0 2.56 0.512 3.584 0.512 3.584 0.512 6.656 1.536 9.728 2.048 18.432 3.584 34.304 6.656 46.592 9.216 1.536 0 2.56 0.512 3.584 0.512 4.096 1.024 7.68 1.536 10.752 2.048 3.584 0.512 6.656 1.536 9.216 2.048 1.536 0.512 3.072 0.512 3.584 0.512l131.072-37.888c-0.512 0-1.536-0.512-2.56-0.512h-1.024c-2.048-0.512-4.096-1.024-7.168-1.536-2.56-0.512-5.12-1.024-8.192-1.536-2.56-0.512-5.632-1.024-9.216-1.536-3.584-0.512-7.68-1.536-11.776-2.048-1.536-0.512-3.072-0.512-4.608-1.024-10.752-2.048-22.528-4.608-35.84-6.656-16.896-3.072-35.328-6.656-54.784-10.752l-30.72-6.144c-4.096-1.024-8.192-1.536-12.8-2.56-1.024 0-2.048-0.512-3.584-0.512-16.384-3.072-32.768-6.144-49.664-9.728-2.048-0.512-3.584-0.512-5.632-1.024-0.512 0-1.536-0.512-2.048-0.512-16.896-3.072-33.792-6.656-49.664-9.728-3.584-0.512-7.168-1.536-10.752-2.048-15.872-3.072-30.72-6.144-45.056-8.704h-0.512c-4.608-1.024-9.216-1.536-13.312-2.56-0.512 0-1.024 0-1.536-0.512-2.048-0.512-3.584-0.512-5.632-1.024-3.072-0.512-6.144-1.024-8.704-1.536-0.512 0-1.024 0-2.048-0.512-8.704-1.536-16.384-3.072-23.04-4.608-1.536-0.512-3.584-0.512-5.12-1.024h-0.512c-1.024 0-1.536-0.512-2.56-0.512s-2.048-0.512-3.072-0.512c-0.512 0-1.024 0-1.536-0.512-1.024 0-2.048-0.512-2.56-0.512-1.024 0-1.536-0.512-2.56-0.512-0.512 0-1.024 0-1.536-0.512-0.512 0-1.024 0-1.536-0.512-2.56-0.512-4.608-1.024-6.656-1.024h-0.512c-1.024 0-2.048-0.512-2.56-0.512-1.024 0-1.536-0.512-2.56-0.512h-0.512c-0.512 0-1.024 0-1.536-0.512h-0.512-0.512-0.512-0.512-0.512l-404.48 35.328-173.056 30.72 420.864-35.84h0.512c0.512 0.512 0.512 0.512 1.024 0.512z" fill="#FFE088" p-id="7275"></path><path d="M426.496 38.4c0.512 0 27.136 5.12 67.584 13.312 40.448 8.192 95.232 18.944 151.04 29.696 56.32 11.264 114.176 22.528 159.744 31.744 45.568 9.216 78.848 15.36 84.992 16.896l-13.824 675.328-449.024 207.872c-5.12-4.096-34.304-26.624-74.752-57.344-39.936-30.72-91.136-70.144-141.312-109.056-49.664-38.4-98.304-76.288-134.144-104.96-35.84-28.16-59.392-47.616-59.392-48.64L5.12 74.24l421.376-35.84z m413.696 737.28l11.776-618.496-424.96-81.408L35.84 103.424l9.216 565.248 380.416 297.984 414.72-190.976" fill="#FFCA28" p-id="7276"></path><path d="M888.832 130.048l131.072-37.888-16.896 633.344-128 79.872z" fill="#DDAC22" p-id="7277"></path></svg>