<?xml version="1.0" standalone="no"?><!DOCTYPE svg PUBLIC "-//W3C//DTD SVG 1.1//EN" "http://www.w3.org/Graphics/SVG/1.1/DTD/svg11.dtd"><svg t="1546046341300" class="icon" style="" viewBox="0 0 1024 1024" version="1.1" xmlns="http://www.w3.org/2000/svg" p-id="3702" xmlns:xlink="http://www.w3.org/1999/xlink" width="200" height="200"><defs><style type="text/css"></style></defs><path d="M856 830.2c0 41-33.5 73.8-74.5 73.8H271.2c-41 0-74.2-32.8-74.2-73.8V153c0-41 33.2-74 74.2-74h510.3c41 0 74.5 33 74.5 74v677.2z" fill="#FFFFFF" p-id="3703"></path><path d="M781.5 912H271.2c-45.8 0-83.2-36-83.2-81.8V153c0-45.8 37.4-83 83.2-83h510.3c45.8 0 82.5 37.2 82.5 83v677.2c0 45.8-36.7 81.8-82.5 81.8zM271.2 87c-36.1 0-65.2 29.9-65.2 66v677.2c0 36.1 29.1 63.8 65.2 63.8h510.3c36.1 0 65.5-27.7 65.5-63.8V153c0-36.1-29.4-66-65.5-66H271.2z" fill="#282828" p-id="3704"></path><path d="M795 762.7c0 34.6-28.8 61.3-63.4 61.3H294.8c-34.6 0-62.8-26.7-62.8-61.3V185.4c0-34.6 28.2-62.4 62.8-62.4h436.8c34.6 0 63.4 27.8 63.4 62.4v577.3z" fill="#50BCFF" p-id="3705"></path><path d="M147.5 301.1l19.1-57.3-58.9-13.4L230.8 161l39.9 70.8z" fill="#1A6DFF" p-id="3706"></path><path d="M147.5 309.9c-2 0-4-0.7-5.6-2-2.8-2.3-3.9-6.1-2.8-9.5l16-48.2-49.5-11.3c-3.5-0.8-6.2-3.7-6.7-7.3-0.5-3.6 1.2-7.1 4.4-8.9l123.1-69.4c2-1.1 4.4-1.4 6.7-0.8 2.2 0.6 4.2 2.1 5.3 4.1l39.9 70.8c1.1 2 1.4 4.4 0.8 6.7-0.6 2.2-2.1 4.2-4.1 5.3l-123.1 69.4c-1.4 0.8-2.9 1.1-4.4 1.1z m-15.7-83.1l36.8 8.4c2.4 0.6 4.5 2.1 5.7 4.3 1.2 2.2 1.5 4.7 0.7 7.1l-11.9 35.8 95.6-53.9-31.3-55.5-95.6 53.8z" fill="#282828" p-id="3707"></path><path d="M292.1 369.6l-27-54.1-51.2 32.2 38-136.1 78.3 21.9z" fill="#1A6DFF" p-id="3708"></path><path d="M292.1 378.4c-3.3 0-6.4-1.9-7.9-4.9l-22.7-45.4-43 27.1c-3.1 1.9-7 1.8-9.9-0.4-2.9-2.2-4.2-5.9-3.2-9.4l38-136.1c1.3-4.7 6.2-7.4 10.8-6.1l78.3 21.8c2.2 0.6 4.2 2.1 5.3 4.1 1.1 2 1.4 4.4 0.8 6.7l-38 136.1c-1 3.5-4 6-7.6 6.4-0.3 0.1-0.6 0.1-0.9 0.1z m-27-71.7c0.8 0 1.6 0.1 2.4 0.3 2.4 0.7 4.4 2.3 5.5 4.5l16.9 33.7 29.5-105.7-61.4-17-29.5 105.7 31.9-20.1c1.4-0.9 3-1.4 4.7-1.4z" fill="#282828" p-id="3709"></path><path d="M364.4 179.9c0 40.2-32.6 72.7-72.8 72.7-40.2 0-72.8-32.6-72.8-72.7 0-40.2 32.6-72.8 72.8-72.8 40.3 0.1 72.8 32.7 72.8 72.8z" fill="#1A6DFF" p-id="3710"></path><path d="M291.7 261.5c-45 0-81.5-36.6-81.5-81.5 0-45 36.6-81.5 81.5-81.5s81.5 36.6 81.5 81.5-36.6 81.5-81.5 81.5z m0-145.5c-35.3 0-64 28.7-64 64s28.7 64 64 64 64-28.7 64-64-28.8-64-64-64z" fill="#282828" p-id="3711"></path><path d="M749.1 672.9h-62c-4.9 86-69.9 156-153.6 168.4V910c0 9.6 7.8 17.4 17.4 17.4h334.4c9.6 0 17.4-7.8 17.4-17.4v-68.7C819 828.8 754 758.9 749.1 672.9z" fill="#1A6DFF" p-id="3712"></path><path d="M885.3 936.2H550.9c-14.5 0-26.2-11.8-26.2-26.2v-68.7c0-4.3 3.2-8 7.5-8.7 80.1-11.9 141.6-79.3 146.2-160.3 0.3-4.6 4.1-8.3 8.8-8.3h62c4.7 0 8.5 3.6 8.8 8.3 4.6 80.9 66.1 148.3 146.2 160.3 4.3 0.6 7.5 4.3 7.5 8.7V910c-0.1 14.5-11.9 26.2-26.4 26.2z m-343.1-87.5V910c0 4.8 3.9 8.6 8.6 8.6h334.5c4.8 0 8.6-3.9 8.6-8.6v-61.3c-81.9-15.6-144.6-84.1-153-167.1h-45.8c-8.3 83-71 151.5-152.9 167.1z" fill="#282828" p-id="3713"></path><path d="M919.2 924.2c0 11.1-9 20.1-20.1 20.1H522.3c-11.1 0-20.1-9-20.1-20.1V820.3c0-11.1 9-20.1 20.1-20.1h376.8c11.1 0 20.1 9 20.1 20.1v103.9z" fill="#1A6DFF" p-id="3714"></path><path d="M899.1 953.1H522.3c-15.9 0-28.9-13-28.9-28.9V820.3c0-15.9 13-28.9 28.9-28.9h376.8c15.9 0 28.9 13 28.9 28.9v103.9c0 16-13 28.9-28.9 28.9zM522.3 808.9c-6.3 0-11.3 5.1-11.3 11.3v103.9c0 6.2 5.1 11.3 11.3 11.3h376.8c6.2 0 11.3-5.1 11.3-11.3V820.3c0-6.3-5.1-11.3-11.3-11.3H522.3z" fill="#282828" p-id="3715"></path><path d="M787.4 640c0 38.2-31 69.2-69.2 69.2S649 678.2 649 640s31-69.2 69.2-69.2c38.2-0.1 69.2 30.9 69.2 69.2z" fill="#1A6DFF" p-id="3716"></path><path d="M718.1 718c-43 0-78-35-78-78s35-78 78-78 78 35 78 78-35 78-78 78z m0-138.5c-33.3 0-60.4 27.1-60.4 60.5 0 33.3 27.1 60.4 60.4 60.4s60.5-27.1 60.5-60.4c0-33.4-27.1-60.5-60.5-60.5z" fill="#282828" p-id="3717"></path><path d="M593.9 261.5H431.6c-4.9 0-8.8-3.9-8.8-8.8s3.9-8.8 8.8-8.8h162.3c4.9 0 8.8 3.9 8.8 8.8s-3.9 8.8-8.8 8.8z" fill="#282828" p-id="3718"></path><path d="M664.5 372H364.4c-4.9 0-8.8-3.9-8.8-8.8s3.9-8.8 8.8-8.8h300.1c4.9 0 8.8 3.9 8.8 8.8s-3.9 8.8-8.8 8.8z" fill="#282828" p-id="3719"></path><path d="M664.5 467.4H364.4c-4.9 0-8.8-3.9-8.8-8.8s3.9-8.8 8.8-8.8h300.1c4.9 0 8.8 3.9 8.8 8.8s-3.9 8.8-8.8 8.8z" fill="#282828" p-id="3720"></path><path d="M664.5 562.9H364.4c-4.9 0-8.8-3.9-8.8-8.8s3.9-8.8 8.8-8.8h300.1c4.9 0 8.8 3.9 8.8 8.8s-3.9 8.8-8.8 8.8z" fill="#282828" p-id="3721"></path></svg>